<?xml version="1.0" standalone="no"?>
<!DOCTYPE svg PUBLIC "-//W3C//DTD SVG 20010904//EN"
 "http://www.w3.org/TR/2001/REC-SVG-20010904/DTD/svg10.dtd">
<svg version="1.0" xmlns="http://www.w3.org/2000/svg"
 width="300.000000pt" height="300.000000pt" viewBox="0 0 300.000000 300.000000"
 preserveAspectRatio="xMidYMid meet">
<metadata>
Created by potrace 1.14, written by Peter Selinger 2001-2017
</metadata>
<g transform="translate(0.000000,300.000000) scale(0.100000,-0.100000)"
fill="#000000" stroke="none">
<path d="M246 2332 c-11 -18 3 -47 30 -62 52 -29 256 -137 373 -197 72 -37
131 -75 162 -106 44 -43 80 -63 216 -122 23 -9 44 -24 47 -32 3 -8 11 -11 16
-8 14 9 57 -19 98 -64 45 -48 122 -153 122 -164 0 -5 17 -35 38 -66 21 -31 71
-112 112 -181 40 -69 83 -136 95 -150 12 -14 46 -63 76 -110 29 -47 63 -92 74
-100 11 -8 38 -35 60 -60 22 -25 54 -58 70 -75 17 -16 48 -52 69 -80 53 -67
125 -135 145 -136 60 -4 108 17 134 60 9 14 33 43 53 64 21 21 62 71 91 110
29 40 63 85 75 101 12 15 27 38 33 50 34 63 78 137 85 141 5 3 11 18 15 34 3
16 15 37 26 47 10 9 19 26 19 37 0 10 6 31 14 45 34 66 85 221 92 282 3 25 14
63 23 85 10 22 23 68 30 103 7 35 14 69 17 76 9 24 -29 58 -71 61 -22 2 -62 7
-90 11 -27 5 -59 8 -70 9 -11 0 -40 4 -65 8 -131 19 -218 25 -485 32 -235 7
-242 7 -440 6 -234 -2 -285 6 -298 43 -2 5 -12 3 -24 -4 -17 -11 -30 -9 -89
14 -38 15 -78 33 -89 40 -43 27 -112 49 -160 51 -41 2 -88 22 -255 105 -203
102 -206 102 -287 106 -45 2 -84 0 -87 -4z"/>
</g>
</svg>
